<svg width="22" height="16" viewBox="0 0 22 16" fill="none" xmlns="http://www.w3.org/2000/svg">
<path d="M21.0576 2.94539C20.9381 2.50142 20.7041 2.09662 20.3789 1.77152C20.0538 1.44641 19.649 1.21239 19.2051 1.09289C17.5701 0.650391 11.0001 0.650391 11.0001 0.650391C11.0001 0.650391 4.43008 0.650391 2.79508 1.09289C2.35111 1.21239 1.94631 1.44641 1.6212 1.77152C1.29609 2.09662 1.06208 2.50142 0.942576 2.94539C0.637285 4.61284 0.489136 6.30526 0.500076 8.00039C0.489136 9.69552 0.637285 11.3879 0.942576 13.0554C1.06208 13.4994 1.29609 13.9042 1.6212 14.2293C1.94631 14.5544 2.35111 14.7884 2.79508 14.9079C4.43008 15.3504 11.0001 15.3504 11.0001 15.3504C11.0001 15.3504 17.5701 15.3504 19.2051 14.9079C19.649 14.7884 20.0538 14.5544 20.3789 14.2293C20.7041 13.9042 20.9381 13.4994 21.0576 13.0554C21.3629 11.3879 21.511 9.69552 21.5001 8.00039C21.511 6.30526 21.3629 4.61284 21.0576 2.94539ZM8.90008 11.1504V4.85039L14.3526 8.00039L8.90008 11.1504Z" fill="white"/>
</svg>
